<?xml version="1.0" encoding="UTF-8" standalone="no"?>
<!-- Created with Inkscape (http://www.inkscape.org/) -->

<svg
   width="17.309774mm"
   height="28.466076mm"
   viewBox="0 0 17.309774 28.466076"
   version="1.1"
   id="svg1"
   xml:space="preserve"
   inkscape:version="1.3.2 (091e20ef0f, 2023-11-25, custom)"
   sodipodi:docname="favicon.svg"
   xmlns:inkscape="http://www.inkscape.org/namespaces/inkscape"
   xmlns:sodipodi="http://sodipodi.sourceforge.net/DTD/sodipodi-0.dtd"
   xmlns="http://www.w3.org/2000/svg"
   xmlns:svg="http://www.w3.org/2000/svg"><sodipodi:namedview
     id="namedview1"
     pagecolor="#ffffff"
     bordercolor="#000000"
     borderopacity="0.25"
     inkscape:showpageshadow="2"
     inkscape:pageopacity="0.0"
     inkscape:pagecheckerboard="0"
     inkscape:deskcolor="#d1d1d1"
     inkscape:document-units="mm"
     inkscape:zoom="6.2858586"
     inkscape:cx="41.839949"
     inkscape:cy="67.930259"
     inkscape:window-width="1920"
     inkscape:window-height="1052"
     inkscape:window-x="1920"
     inkscape:window-y="0"
     inkscape:window-maximized="1"
     inkscape:current-layer="layer1" /><defs
     id="defs1" /><g
     inkscape:label="Calque 1"
     inkscape:groupmode="layer"
     id="layer1"
     transform="translate(-103.06168,-60.829435)"><path
       style="fill:#8b2633"
       d="m 111.93418,88.517935 c 0,-0.78333 -0.78577,-1.2209 -6.28414,-3.49946 l -2.58836,-1.07264 2.65595,-2.60348 c 1.77807,-1.74295 2.94502,-3.67393 3.53049,-5.84198 0.48099,-1.78118 1.32385,-3.761995 1.87303,-4.40182 0.75414,-0.87862 1.67455,-0.870038 0.23964,-2.0777 -0.99618,-0.838412 -0.37911,-1.79866 1.02136,-1.79866 0.5272,0 0.89594,0.75284 0.89594,1.82922 v 1.82922 l 1.46952,-1.46953 c 1.38524,-1.38523 1.40451,-1.54136 0.33598,-2.72207 -1.48805,-1.64428 -1.43801,-3.68671 0.12498,-5.1012 1.19286,-1.07952 1.28002,-1.05866 1.67072,0.39983 0.76865,2.86944 0.43525,6.02832 -0.82521,7.81863 -0.69067,0.98099 -1.45154,2.41528 -1.69083,3.1873 -0.57969,1.87029 1.20717,5.98413 4.03336,9.2859 2.44972,2.86194 2.61092,4.09293 0.53619,4.09441 -0.70683,5.1e-4 -1.3151,0.45408 -1.35171,1.00794 -0.13576,2.05409 -0.30605,2.32848 -0.88134,1.4201 -0.46541,-0.73489 -1.02905,-0.77761 -2.67754,-0.20295 -1.58287,0.55179 -2.08803,0.53218 -2.08803,-0.0811 z m -0.69333,-13.52867 c -0.0118,-0.39133 -0.46533,-0.12455 -1.00794,0.59284 -0.54261,0.7174 -0.97695,1.62454 -0.96519,2.01588 0.0118,0.39133 1.20193,0.461285 1.74454,-0.256105 0.54261,-0.7174 0.24034,-1.961275 0.22859,-2.352615 z"
       id="path2"
       sodipodi:nodetypes="cscsssssscssssssssssscccscsc" /></g></svg>
