<?xml version="1.0" standalone="no"?>
<!DOCTYPE svg PUBLIC "-//W3C//DTD SVG 20010904//EN"
 "http://www.w3.org/TR/2001/REC-SVG-20010904/DTD/svg10.dtd">
<svg version="1.0" xmlns="http://www.w3.org/2000/svg"
 width="699.000000pt" height="295.000000pt" viewBox="0 0 699.000000 295.000000"
 preserveAspectRatio="xMidYMid meet">

<g transform="translate(0.000000,295.000000) scale(0.100000,-0.100000)"
fill="#FFFFFF" stroke="none">
<path d="M3970 2897 c-71 -48 -92 -149 -43 -207 14 -17 37 -36 50 -41 12 -5
23 -14 23 -21 0 -17 -101 -110 -114 -105 -7 3 -10 24 -8 56 4 57 -8 81 -42 81
-30 0 -66 -27 -66 -51 0 -10 9 -28 20 -39 28 -28 25 -53 -9 -78 -22 -16 -30
-32 -36 -69 -3 -26 -22 -84 -41 -127 -19 -44 -34 -92 -34 -107 0 -20 -11 -36
-42 -61 -61 -47 -84 -71 -91 -91 -4 -9 -20 -20 -37 -24 -29 -5 -50 -28 -50
-53 0 -8 9 -10 24 -6 14 3 28 2 31 -4 3 -5 14 -10 24 -10 10 0 26 -9 36 -20
10 -12 24 -19 31 -16 6 2 20 -1 30 -8 11 -7 36 -16 56 -20 21 -4 41 -12 45
-19 11 -17 59 -37 88 -37 30 0 32 -15 5 -32 -11 -7 -20 -16 -20 -20 0 -14 57
-8 70 6 6 8 18 12 26 9 8 -3 26 3 40 12 20 13 28 14 34 5 4 -7 12 -10 17 -7 6
4 15 -5 21 -18 12 -27 19 -30 41 -16 10 7 12 22 7 60 -7 51 -7 51 22 51 15 0
33 -5 39 -11 7 -7 20 -1 44 20 l33 31 -37 38 c-21 21 -35 41 -32 44 3 3 -20
32 -51 64 -67 68 -157 244 -156 303 2 54 29 136 53 157 31 28 69 108 69 147 0
19 5 58 10 88 8 44 8 55 -4 61 -8 5 -18 29 -22 53 -3 25 -10 47 -14 50 -4 3
-22 -5 -40 -18z m-183 -577 c-7 -61 -18 -83 -57 -110 -28 -20 -30 -20 -30 -3
0 11 13 40 30 66 16 26 32 58 36 72 11 46 27 28 21 -25z"/>
<path d="M2943 2833 c-7 -2 -13 -11 -13 -19 0 -7 -16 -20 -35 -28 -40 -17 -49
-42 -11 -32 20 5 25 1 29 -19 6 -32 -24 -55 -69 -55 -34 0 -80 -40 -130 -111
-23 -34 -24 -40 -14 -82 16 -60 89 -155 110 -142 6 3 10 -5 10 -19 0 -14 10
-51 23 -83 32 -84 30 -221 -5 -320 l-26 -72 32 -36 c22 -24 40 -35 60 -35 24
0 26 2 16 15 -6 8 -8 19 -4 26 5 8 9 7 16 -5 5 -9 17 -16 27 -16 10 0 26 -11
35 -25 15 -23 54 -34 68 -19 4 3 -2 24 -12 47 -10 23 -26 83 -35 132 -9 50
-21 102 -26 117 -9 21 -6 50 11 127 19 86 21 117 14 212 -4 67 -3 110 2 106
35 -21 119 -109 135 -139 21 -42 30 -46 49 -23 16 20 27 19 57 -5 36 -28 46
-25 28 10 -11 22 -12 30 -3 30 21 0 -4 17 -44 30 -44 14 -150 115 -178 169
-10 20 -30 43 -45 49 -17 8 -25 18 -21 27 3 8 1 15 -4 15 -6 0 -10 4 -10 10 0
5 10 9 22 7 18 -2 24 6 33 38 11 36 15 40 40 37 26 -4 28 -2 16 12 -7 9 -19
16 -27 16 -7 0 -19 10 -25 23 -7 12 -17 25 -23 29 -12 9 -54 9 -73 1z m-125
-315 c22 -87 23 -98 9 -98 -38 0 -73 94 -47 125 19 23 27 18 38 -27z"/>
<path d="M1933 2253 c-7 -2 -13 -16 -13 -29 0 -19 8 -29 35 -40 19 -8 35 -20
35 -28 0 -21 -27 -38 -50 -31 -11 4 -20 2 -20 -4 0 -15 53 -14 68 1 23 23 14
54 -23 71 -19 9 -35 23 -35 31 0 18 27 28 53 20 13 -4 17 -2 13 5 -7 11 -41
14 -63 4z"/>
<path d="M2073 2249 c13 -8 17 -23 17 -64 0 -41 -4 -56 -17 -64 -15 -8 -11
-10 17 -10 19 0 29 3 23 6 -9 3 -13 27 -13 68 0 41 4 65 13 68 6 3 -4 6 -23 6
-28 0 -32 -2 -17 -10z"/>
<path d="M2182 2185 l1 -80 7 70 c3 39 3 74 -2 80 -4 5 -7 -27 -6 -70z"/>
<path d="M2250 2213 l0 -48 -21 33 c-12 18 -24 30 -27 28 -3 -3 7 -24 22 -46
14 -22 26 -46 26 -55 0 -8 5 -15 10 -15 6 0 10 32 10 75 0 43 -4 75 -10 75 -5
0 -10 -21 -10 -47z"/>
<path d="M2320 2241 c-5 -11 -10 -36 -10 -56 0 -52 15 -75 50 -75 17 0 30 4
30 9 0 5 -8 7 -19 4 -40 -10 -67 59 -41 108 12 21 46 26 53 7 3 -8 6 -6 6 5 1
25 -55 23 -69 -2z"/>
<path d="M2440 2185 l0 -75 43 2 42 1 -37 4 c-34 4 -38 7 -38 33 0 25 4 29 33
33 l32 4 -32 1 c-29 2 -33 5 -33 31 0 27 4 30 38 34 l37 4 -42 1 -43 2 0 -75z"/>
<path d="M4460 2249 c-12 -8 -10 -10 9 -5 24 5 51 -8 51 -24 0 -5 -16 -27 -35
-50 -19 -23 -35 -46 -35 -51 0 -5 21 -8 48 -7 43 1 44 2 10 5 -21 2 -38 8 -38
12 0 4 14 20 30 36 17 16 30 38 30 50 0 39 -37 57 -70 34z"/>
<path d="M4591 2246 c-18 -22 -10 -117 12 -130 31 -19 52 4 55 63 3 56 -9 81
-38 81 -10 0 -23 -6 -29 -14z m47 -8 c18 -18 15 -93 -4 -109 -14 -11 -18 -10
-30 6 -17 22 -18 68 -4 96 12 22 21 24 38 7z"/>
<path d="M4720 2249 c-12 -8 -10 -10 9 -5 24 5 51 -8 51 -24 0 -5 -16 -27 -35
-50 -19 -23 -35 -46 -35 -51 0 -5 21 -8 48 -7 43 1 44 2 10 5 -21 2 -38 8 -38
12 0 4 14 20 30 36 17 16 30 38 30 50 0 39 -37 57 -70 34z"/>
<path d="M4852 2201 l-21 -61 29 0 c17 0 33 -7 39 -17 10 -17 10 -17 11 0 0 9
6 17 13 17 9 0 9 2 1 8 -7 4 -14 18 -17 32 -4 25 -4 25 -6 -2 -1 -23 -6 -28
-26 -28 -14 0 -25 1 -25 3 0 2 7 25 16 51 9 26 14 49 11 52 -3 3 -14 -22 -25
-55z"/>
<path d="M1565 1920 c-191 -22 -365 -96 -485 -207 -125 -115 -180 -224 -182
-356 -1 -72 14 -129 49 -175 26 -34 89 -72 121 -72 15 0 21 -9 26 -38 7 -46
42 -87 93 -109 49 -21 162 -20 239 2 77 22 206 86 271 136 59 44 68 48 53 20
-15 -28 -12 -67 5 -81 38 -31 156 29 280 144 83 76 57 70 -40 -10 -82 -67
-143 -107 -182 -119 -18 -5 -23 -2 -23 13 0 76 538 608 699 693 22 11 41 23
41 24 0 9 -79 -9 -118 -26 -78 -33 -213 -148 -436 -372 -232 -231 -295 -282
-423 -347 -167 -83 -334 -92 -373 -19 -17 30 -8 107 18 160 61 126 270 286
416 319 39 9 50 7 78 -10 34 -21 98 -27 98 -10 0 13 -29 27 -73 35 -21 4 -41
14 -44 21 -3 8 7 39 21 69 34 69 142 170 233 218 l68 35 145 -29 c141 -28 222
-35 254 -23 9 4 16 18 16 34 0 78 -139 108 -352 76 -92 -14 -126 -16 -174 -7
-83 16 -236 21 -319 11z m797 -36 c63 -33 42 -80 -32 -70 -93 12 -281 60 -267
67 51 29 245 31 299 3z m-504 -10 l31 -6 -58 -38 c-117 -76 -181 -166 -181
-256 l0 -49 -90 -17 c-129 -23 -241 -80 -334 -168 -68 -65 -126 -154 -126
-194 0 -25 -50 -20 -93 9 -79 54 -108 184 -67 304 74 220 285 363 610 414 42
7 276 7 308 1z"/>
<path d="M2894 1561 c-85 -38 -137 -144 -137 -276 0 -126 52 -227 137 -266
116 -53 233 11 276 149 l17 55 11 -46 c31 -123 165 -204 276 -167 47 15 141
120 108 120 -4 0 -16 -14 -26 -31 -40 -68 -132 -90 -197 -46 -53 35 -73 86
-77 200 -6 141 24 244 79 272 37 20 104 19 135 -2 28 -18 64 -81 64 -113 0
-11 5 -20 11 -20 8 0 10 16 5 53 -3 28 -6 69 -6 90 0 20 -4 37 -10 37 -5 0
-10 -7 -10 -15 0 -19 -27 -19 -60 0 -35 20 -107 18 -156 -4 -50 -23 -99 -81
-122 -143 -9 -27 -19 -48 -22 -48 -3 0 -11 21 -18 46 -37 138 -162 208 -278
155z m150 -40 c13 -12 28 -38 35 -59 19 -60 25 -209 11 -292 -10 -62 -18 -80
-45 -107 -26 -26 -41 -33 -73 -33 -94 0 -126 76 -120 283 4 146 19 195 67 223
34 19 97 12 125 -15z"/>
<path d="M5620 1564 c-102 -44 -161 -175 -145 -318 24 -221 220 -324 352 -185
108 115 107 356 -4 461 -58 55 -136 71 -203 42z m147 -49 c12 -14 28 -44 34
-68 16 -55 16 -260 0 -316 -18 -63 -59 -101 -109 -101 -92 0 -127 73 -127 265
0 118 3 135 25 180 14 28 36 56 50 63 38 19 101 8 127 -23z"/>
<path d="M3785 1558 c-3 -7 -36 -116 -74 -243 -80 -269 -86 -281 -120 -294
-20 -7 -9 -9 54 -10 55 0 73 3 59 9 -34 13 -36 25 -17 95 l17 65 71 0 71 0 17
-53 c23 -73 22 -96 -5 -107 -15 -6 54 -9 193 -9 241 -1 288 7 351 59 120 99
122 325 4 426 -60 52 -120 65 -272 62 -96 -2 -121 -5 -99 -12 17 -5 33 -14 37
-20 4 -6 8 -114 8 -241 0 -126 -4 -235 -8 -241 -11 -18 -71 -27 -87 -14 -8 7
-53 131 -100 276 -47 145 -88 264 -91 264 -2 0 -7 -6 -9 -12z m533 -57 c55
-39 75 -92 80 -209 4 -95 2 -106 -22 -157 -36 -73 -76 -97 -153 -93 l-58 3 -3
230 c-1 126 0 236 3 243 9 23 114 11 153 -17z m-489 -278 c1 -9 -16 -13 -55
-13 l-56 0 6 28 c4 15 17 59 28 97 l21 70 28 -85 c15 -47 28 -91 28 -97z"/>
<path d="M2380 1546 l35 -13 0 -248 0 -248 -35 -13 c-31 -11 -21 -13 101 -13
148 -1 189 7 232 47 78 73 47 205 -55 227 l-30 7 39 18 c89 40 87 165 -4 222
-35 21 -51 23 -178 25 -125 2 -136 1 -105 -11z m247 -50 c36 -42 33 -118 -6
-157 -24 -24 -38 -29 -75 -29 l-46 0 0 111 0 112 52 -5 c40 -4 57 -11 75 -32z
m-34 -229 c41 -18 57 -37 67 -82 19 -84 -30 -148 -109 -143 l-46 3 -3 118 -3
117 31 0 c17 0 45 -6 63 -13z"/>
<path d="M4505 1548 c17 -6 33 -16 37 -22 10 -15 10 -468 -1 -484 -4 -7 -21
-17 -37 -22 -18 -5 77 -9 256 -9 l286 -1 18 71 c10 39 16 72 13 75 -2 3 -15
-17 -28 -43 -31 -61 -56 -74 -144 -71 l-70 3 0 240 0 240 35 17 c34 18 31 18
-180 17 -166 0 -208 -3 -185 -11z m219 -8 l26 -10 0 -244 c0 -135 -3 -247 -8
-250 -4 -2 -23 -7 -43 -11 -67 -12 -69 -5 -69 258 0 128 4 237 8 243 15 23 49
28 86 14z"/>
<path d="M5098 1549 c21 -6 36 -19 42 -35 13 -33 13 -444 0 -464 -5 -8 -24
-20 -42 -27 -28 -10 -4 -12 153 -12 l186 -1 16 60 c24 85 20 103 -9 43 -18
-38 -33 -54 -56 -62 -42 -15 -141 -14 -156 1 -15 15 -17 424 -2 462 6 16 21
29 42 35 25 7 5 9 -87 9 -92 0 -112 -2 -87 -9z"/>
<path d="M1310 610 l0 -70 29 0 c33 0 40 13 37 75 -1 50 -11 65 -42 65 -23 0
-24 -2 -24 -70z m40 30 c0 -11 -4 -20 -10 -20 -5 0 -10 9 -10 20 0 11 5 20 10
20 6 0 10 -9 10 -20z m5 -60 c0 -7 -6 -15 -12 -17 -8 -3 -13 4 -13 17 0 13 5
20 13 18 6 -3 12 -11 12 -18z"/>
<path d="M1540 611 c0 -56 3 -71 15 -71 10 0 15 10 15 31 0 17 4 28 10 24 6
-3 10 -17 10 -31 0 -13 4 -24 10 -24 5 0 8 29 7 68 l-2 67 -32 3 -33 3 0 -70z
m42 17 c-9 -9 -12 -7 -12 12 0 19 3 21 12 12 9 -9 9 -15 0 -24z"/>
<path d="M1782 613 c-9 -62 -6 -97 5 -65 5 14 33 16 33 2 0 -5 6 -10 13 -10
10 0 11 14 4 70 -8 56 -13 70 -27 70 -14 0 -20 -14 -28 -67z m37 -25 c1 -5 -3
-8 -9 -8 -5 0 -10 12 -9 28 0 24 1 25 9 7 5 -11 9 -23 9 -27z"/>
<path d="M2017 673 c-14 -13 -6 -50 13 -68 21 -19 27 -45 11 -45 -5 0 -11 6
-14 13 -2 6 -8 9 -12 5 -15 -14 5 -39 27 -36 31 4 36 48 8 73 -21 19 -27 45
-11 45 5 0 11 -6 14 -12 2 -7 8 -10 12 -6 13 12 -3 38 -23 38 -10 0 -22 -3
-25 -7z"/>
<path d="M2241 661 c-8 -14 -5 -26 14 -51 25 -34 24 -60 -1 -39 -20 16 -27 6
-10 -16 8 -11 19 -16 30 -12 27 11 30 37 7 67 -25 35 -29 59 -6 40 20 -17 32
-5 15 15 -17 20 -37 19 -49 -4z"/>
<path d="M2460 610 l0 -70 30 0 c17 0 30 5 30 10 0 6 -9 10 -20 10 -13 0 -20
7 -20 20 0 11 7 20 15 20 8 0 15 5 15 10 0 6 -7 10 -15 10 -8 0 -15 9 -15 20
0 13 7 20 20 20 11 0 20 5 20 10 0 6 -13 10 -30 10 l-30 0 0 -70z"/>
<path d="M2690 611 c0 -41 4 -71 10 -71 6 0 10 14 10 30 0 17 5 30 10 30 6 0
10 -13 10 -30 0 -16 4 -30 10 -30 5 0 8 29 7 68 -2 65 -3 67 -29 70 l-28 3 0
-70z m40 29 c0 -11 -4 -20 -10 -20 -5 0 -10 9 -10 20 0 11 5 20 10 20 6 0 10
-9 10 -20z"/>
<path d="M2920 610 c0 -40 4 -70 10 -70 6 0 10 30 10 70 0 40 -4 70 -10 70 -6
0 -10 -30 -10 -70z"/>
<path d="M3110 610 l0 -70 30 0 c17 0 30 5 30 10 0 6 -9 10 -20 10 -13 0 -20
7 -20 20 0 11 7 20 15 20 8 0 15 5 15 10 0 6 -7 10 -15 10 -8 0 -15 9 -15 20
0 13 7 20 20 20 11 0 20 5 20 10 0 6 -13 10 -30 10 l-30 0 0 -70z"/>
<path d="M3356 613 c-22 -58 -27 -87 -11 -72 12 12 54 139 46 139 -5 0 -21
-30 -35 -67z"/>
<path d="M3560 610 c0 -40 4 -70 10 -70 6 0 10 14 10 30 0 37 18 40 22 3 2
-14 8 -28 15 -30 8 -3 11 13 10 54 -3 69 -10 83 -43 83 -23 0 -24 -2 -24 -70z
m40 30 c0 -11 -4 -20 -10 -20 -5 0 -10 9 -10 20 0 11 5 20 10 20 6 0 10 -9 10
-20z"/>
<path d="M3790 610 l0 -70 30 0 c17 0 30 5 30 10 0 6 -7 10 -15 10 -8 0 -15 9
-15 20 0 11 7 20 15 20 8 0 15 5 15 10 0 6 -7 10 -15 10 -8 0 -15 9 -15 20 0
11 7 20 15 20 8 0 15 5 15 10 0 6 -13 10 -30 10 l-30 0 0 -70z"/>
<path d="M4027 673 c-14 -13 -6 -50 13 -68 21 -19 27 -45 11 -45 -5 0 -11 6
-14 13 -2 6 -8 9 -12 5 -15 -14 5 -39 27 -36 31 4 36 48 8 73 -21 19 -27 45
-11 45 5 0 11 -6 14 -12 2 -7 8 -10 12 -6 13 12 -3 38 -23 38 -10 0 -22 -3
-25 -7z"/>
<path d="M4240 670 c0 -5 5 -10 10 -10 6 0 10 -27 10 -60 0 -33 4 -60 10 -60
6 0 10 27 10 60 0 33 4 60 10 60 6 0 10 5 10 10 0 6 -13 10 -30 10 -16 0 -30
-4 -30 -10z"/>
<path d="M4472 613 c-9 -62 -6 -97 5 -65 5 14 33 16 33 2 0 -5 6 -10 13 -10
10 0 11 14 4 70 -8 56 -13 70 -27 70 -14 0 -20 -14 -28 -67z m37 -25 c1 -5 -3
-8 -9 -8 -5 0 -10 12 -9 28 0 24 1 25 9 7 5 -11 9 -23 9 -27z"/>
<path d="M4700 626 c0 -67 7 -86 31 -86 26 0 39 30 39 89 0 39 -4 51 -15 51
-12 0 -15 -13 -15 -61 0 -37 -4 -58 -10 -54 -5 3 -10 31 -10 61 0 30 -4 54
-10 54 -5 0 -10 -24 -10 -54z"/>
<path d="M4930 610 c0 -40 4 -70 10 -70 6 0 10 14 10 30 0 37 18 40 22 3 2
-14 8 -28 15 -30 8 -3 11 13 10 54 -3 69 -10 83 -43 83 -23 0 -24 -2 -24 -70z
m40 30 c0 -11 -4 -20 -10 -20 -5 0 -10 9 -10 20 0 11 5 20 10 20 6 0 10 -9 10
-20z"/>
<path d="M5176 663 c-13 -47 -17 -123 -7 -123 6 0 11 5 11 10 0 6 7 10 15 10
8 0 15 -4 15 -10 0 -5 5 -10 11 -10 10 0 8 32 -7 113 -6 30 -30 37 -38 10z
m24 -58 c0 -14 -4 -25 -9 -25 -4 0 -6 11 -3 25 2 14 6 25 8 25 2 0 4 -11 4
-25z"/>
<path d="M5400 610 c0 -72 19 -101 21 -32 l1 37 10 -37 c6 -21 16 -38 24 -38
11 0 14 17 14 70 0 71 -16 97 -23 38 l-3 -33 -8 33 c-5 17 -15 32 -22 32 -11
0 -14 -17 -14 -70z"/>
<path d="M5630 670 c0 -5 5 -10 10 -10 6 0 10 -27 10 -60 0 -33 4 -60 10 -60
6 0 10 27 10 60 0 33 4 60 10 60 6 0 10 5 10 10 0 6 -13 10 -30 10 -16 0 -30
-4 -30 -10z"/>
<path d="M3092 428 c-7 -7 -12 -25 -12 -40 0 -26 2 -27 25 -16 18 8 32 8 55
-2 46 -19 50 -3 8 36 -40 36 -57 41 -76 22z"/>
<path d="M3832 406 c-42 -39 -38 -55 8 -36 23 10 37 10 55 2 23 -11 25 -10 25
16 0 30 -16 52 -37 52 -7 0 -30 -15 -51 -34z"/>
<path d="M2959 370 l-27 -30 28 -30 c35 -38 55 -38 75 0 14 27 14 33 0 60 -19
38 -43 38 -76 0z"/>
<path d="M3965 370 c-14 -27 -14 -33 0 -60 9 -16 23 -30 31 -30 9 0 29 14 44
30 l28 30 -28 30 c-15 17 -35 30 -44 30 -8 0 -22 -13 -31 -30z"/>
<path d="M2770 365 c-28 -11 -232 -14 -1072 -14 -685 -1 -1038 -4 -1038 -11 0
-7 353 -10 1039 -10 897 0 1043 -2 1074 -15 20 -8 44 -12 54 -9 31 10 63 27
63 34 0 8 -37 27 -65 34 -11 2 -36 -2 -55 -9z"/>
<path d="M4143 364 c-18 -9 -33 -20 -33 -24 0 -4 16 -15 36 -25 32 -15 39 -15
81 -1 41 14 166 16 1080 16 682 0 1033 3 1033 10 0 7 -351 10 -1034 10 -893 0
-1039 2 -1076 15 -51 18 -48 18 -87 -1z"/>
<path d="M3101 351 c-11 -7 -10 -11 6 -19 20 -11 63 -6 63 8 0 18 -46 25 -69
11z"/>
<path d="M3205 351 c-7 -12 12 -24 25 -16 11 7 4 25 -10 25 -5 0 -11 -4 -15
-9z"/>
<path d="M3400 350 l-95 -5 97 -5 c54 -3 142 -2 195 1 l98 5 -87 2 c-47 1 -92
3 -100 5 -7 2 -56 0 -108 -3z"/>
<path d="M3765 351 c-7 -12 12 -24 25 -16 11 7 4 25 -10 25 -5 0 -11 -4 -15
-9z"/>
<path d="M3843 353 c-20 -7 -15 -20 9 -26 29 -8 66 12 47 24 -15 9 -37 10 -56
2z"/>
<path d="M3166 318 c-10 -6 -33 -8 -51 -5 -38 6 -47 -5 -34 -41 15 -39 38 -38
81 5 39 39 41 62 4 41z"/>
<path d="M3806 322 c-3 -5 13 -26 35 -48 32 -31 43 -37 57 -28 9 6 18 25 20
42 3 30 2 31 -31 25 -19 -3 -44 0 -55 6 -11 6 -23 7 -26 3z"/>
</g>
</svg>
